# xmcd
#
# Track frame offsets:
#	150
#	18801
#	36482
#	53938
#	72740
#	90313
#	117151
#	136660
#	151471
#	177232
#	189041
#	204539
#	219797
#	237010
#
# Disc length: 3330 seconds
# Revision: 5
# Processed by: cddbd v1.5.2PL0 Copyright (c) Steve Scherf et al.
# Submitted via: dBpowerAMP V12.0
#
DISCID=b30d000e
DTITLE=Rudy Rotta - Some of My Favorite Songs For...
DYEAR=2006
DGENRE=Blues
TTITLE0=It's All Over Now Baby Blue
TTITLE1=Can't Find My Way Home
TTITLE2=Black Magic Woman
TTITLE3=My Babe
TTITLE4=Knockin' on Heaven's Door
TTITLE5=Truth
TTITLE6=To Love Somebody
TTITLE7=Politician
TTITLE8=St. James Infirmery
TTITLE9=Medley: Whole Lotta Shakin' - Kansas City Blues
TTITLE10=Who'll Stop the Rain
TTITLE11=You Don't Love Me
TTITLE12=Cold Lady
TTITLE13=29 settembre
EXTD=
EXTT0=
EXTT1=
EXTT2=
EXTT3=
EXTT4=
EXTT5=
EXTT6=
EXTT7=
EXTT8=
EXTT9=
EXTT10=
EXTT11=
EXTT12=
EXTT13=
PLAYORDER=
